<?xml version="1.0" encoding="iso-8859-1"?>
<!-- Uploaded to: SVG Repo, www.svgrepo.com, Generator: SVG Repo Mixer Tools -->
<svg height="800px" width="800px" version="1.1" id="Layer_1" xmlns="http://www.w3.org/2000/svg" xmlns:xlink="http://www.w3.org/1999/xlink" 
	 viewBox="0 0 512.035 512.035" xml:space="preserve">
<g transform="translate(1 1)">
	<polygon style="fill:#FFE100;" points="447,127.035 327.533,7.568 63,7.568 63,502.501 447,502.501 	"/>
	<g>
		<polygon style="fill:#63D3FD;" points="139.8,451.301 191,451.301 191,331.835 139.8,331.835 		"/>
		<polygon style="fill:#63D3FD;" points="225.133,451.301 276.333,451.301 276.333,272.101 225.133,272.101 		"/>
		<polygon style="fill:#63D3FD;" points="310.467,451.301 361.667,451.301 361.667,306.235 310.467,306.235 		"/>
	</g>
	<polygon style="fill:#FFFFFF;" points="63,502.501 88.6,502.501 88.6,7.568 63,7.568 	"/>
	<polygon style="fill:#FFA800;" points="327.533,7.568 319,7.568 421.4,127.035 421.4,502.501 447,502.501 447,127.035 	"/>
	<polygon style="fill:#FDCC00;" points="327.533,7.568 327.533,127.035 447,127.035 	"/>
	<path d="M447,511.035H63c-5.12,0-8.533-3.413-8.533-8.533V7.568c0-5.12,3.413-8.533,8.533-8.533h264.533
		c2.56,0,4.267,0.853,5.973,2.56l119.467,119.467c1.707,1.707,2.56,3.413,2.56,5.973v375.467
		C455.533,507.621,452.12,511.035,447,511.035z M71.533,493.968h366.933v-363.52L324.12,16.101H71.533V493.968z"/>
	<path d="M447,135.568H327.533c-5.12,0-8.533-3.413-8.533-8.533V7.568c0-3.413,1.707-6.827,5.12-7.68
		c3.413-1.707,6.827-0.853,9.387,1.707l119.467,119.467c2.56,2.56,3.413,5.973,1.707,9.387
		C453.827,133.861,450.413,135.568,447,135.568z M336.067,118.501h90.453l-90.453-90.453V118.501z"/>
	<path d="M387.267,459.835H114.2c-5.12,0-8.533-3.413-8.533-8.533s3.413-8.533,8.533-8.533h273.067c5.12,0,8.533,3.413,8.533,8.533
		S392.387,459.835,387.267,459.835z"/>
	<path d="M191,459.835h-51.2c-5.12,0-8.533-3.413-8.533-8.533V331.835c0-5.12,3.413-8.533,8.533-8.533H191
		c5.12,0,8.533,3.413,8.533,8.533v119.467C199.533,456.421,196.12,459.835,191,459.835z M148.333,442.768h34.133v-102.4h-34.133
		V442.768z"/>
	<path d="M276.333,459.835h-51.2c-5.12,0-8.533-3.413-8.533-8.533v-179.2c0-5.12,3.413-8.533,8.533-8.533h51.2
		c5.12,0,8.533,3.413,8.533,8.533v179.2C284.867,456.421,281.453,459.835,276.333,459.835z M233.667,442.768H267.8V280.635h-34.133
		V442.768z"/>
	<path d="M361.667,459.835h-51.2c-5.12,0-8.533-3.413-8.533-8.533V306.235c0-5.12,3.413-8.533,8.533-8.533h51.2
		c5.12,0,8.533,3.413,8.533,8.533v145.067C370.2,456.421,366.787,459.835,361.667,459.835z M319,442.768h34.133v-128H319V442.768z"
		/>
	<path d="M173.933,289.168H139.8c-5.12,0-8.533-3.413-8.533-8.533c0-5.12,3.413-8.533,8.533-8.533h30.72l48.64-48.64
		c1.707-1.707,3.413-2.56,5.973-2.56h39.253l65.707-58.027c3.413-3.413,8.533-2.56,11.947,0.853
		c3.413,3.413,2.56,8.533-0.853,11.947l-68.267,59.733c-0.853,1.707-3.413,2.56-5.12,2.56h-39.253l-48.64,48.64
		C178.2,288.315,176.493,289.168,173.933,289.168z"/>
	<path d="M336.067,178.235h-34.133c-5.12,0-8.533-3.413-8.533-8.533c0-5.12,3.413-8.533,8.533-8.533h34.133
		c5.12,0,8.533,3.413,8.533,8.533C344.6,174.821,341.187,178.235,336.067,178.235z"/>
	<path d="M336.067,212.368c-5.12,0-8.533-3.413-8.533-8.533v-34.133c0-5.12,3.413-8.533,8.533-8.533s8.533,3.413,8.533,8.533v34.133
		C344.6,208.955,341.187,212.368,336.067,212.368z"/>
</g>
</svg>